<?xml version="1.0" encoding="utf-8"?>
<!-- Generator: Adobe Illustrator 21.1.0, SVG Export Plug-In . SVG Version: 6.00 Build 0)  -->
<svg version="1.1" id="Layer_1" xmlns="http://www.w3.org/2000/svg" xmlns:xlink="http://www.w3.org/1999/xlink" x="0px" y="0px"
	 viewBox="0 0 80.4 86.5" style="enable-background:new 0 0 80.4 86.5;" xml:space="preserve">
<style type="text/css">
	.st0{fill:#423338;}
</style>
<title>33</title>
<path class="st0" d="M18.9,0c-0.5,0.1-0.8,0.5-0.8,1v5H5c-2.8,0-5,2.3-5,5v70.5c0,2.8,2.3,5,5,5h52.4c2.8,0,5-2.3,5-5v-27l9.2-15.6
	l6.5,3.8l-8.5,14.2c-0.4,0.4-0.3,1,0.1,1.4s1,0.3,1.4-0.1c0.1-0.1,0.2-0.2,0.2-0.3l9-15.1c0.3-0.5,0.1-1.1-0.3-1.4l0,0l-7.4-4.3
	l2.9-4.9c1.9-3.2,0.8-7.2-2.4-9v-0.1c-3.2-1.8-7.3-0.7-9.2,2.5L62.4,28V11c0-2.8-2.3-5-5-5H44.3V1c0-0.6-0.5-1-1-1H19.1
	C19.1,0,19,0,18.9,0C19,0,18.9,0,18.9,0z M20.1,2h22.1v10.1H20.1V2z M5,8h13.1v5c0,0.6,0.5,1,1,1h24.1c0.6,0,1-0.5,1-1V8h13.1
	c1.7,0,3,1.3,3,3v20.3l-10.1,17c0.1-0.6-0.4-1-0.9-1.1h-0.1h-18h-0.1c-0.6,0-1,0.5-1,1.1s0.5,1,1.1,1h18.1c0.2,0,0.4,0,0.6-0.2
	l-6.7,11.3c-0.5,0.9-0.8,1.9-0.9,2.9h-11h-0.1c-0.6,0-1,0.5-1,1.1s0.5,1,1.1,1l0,0h11.2c0.4,1.7,1.5,3.2,3.1,4.1l0.1,0.1
	c3.2,1.8,7.3,0.7,9.2-2.5l5.5-9.3v23.7c0,1.7-1.3,3-3,3H5c-1.7,0-3-1.3-3-3V11C2,9.3,3.3,8,5,8z M69.4,24.1c0.9-0.1,1.8,0.1,2.7,0.6
	l0.1,0.1c2.3,1.3,3,4.1,1.7,6.3l-2.9,5l-8-4.7c0,0-0.1,0-0.1-0.1l2.8-4.8C66.5,25,67.9,24.2,69.4,24.1z M23.1,25.1H23
	c-0.2,0-0.4,0.2-0.6,0.3L16,32.9l-2.3-1.5c-0.5-0.3-1.1-0.2-1.4,0.3c-0.3,0.5-0.2,1.1,0.3,1.4l0,0l3,2c0.4,0.3,1,0.2,1.3-0.2l7-8
	c0.4-0.4,0.4-1,0-1.4C23.6,25.1,23.3,25,23.1,25.1z M31.1,31.2c-0.6,0.1-1,0.5-0.9,1.1c0.1,0.6,0.5,1,1.1,0.9h18.1c0.6,0,1-0.4,1-1
	c0-0.6-0.4-1-1-1l0,0H31.3C31.2,31.2,31.2,31.2,31.1,31.2L31.1,31.2z M61.8,33L61.8,33l8.1,4.8L53.2,66.1c-1.3,2.2-4.1,3-6.4,1.7
	l-0.1-0.1c-2.3-1.3-3-4-1.7-6.3L61.8,33z M23.1,41.3H23c-0.2,0-0.4,0.2-0.6,0.3L15.9,49l-2.3-1.5c-0.5-0.3-1.1-0.2-1.4,0.3
	s-0.2,1.1,0.3,1.4l0,0l3,2c0.4,0.3,1,0.2,1.3-0.2l7-8c0.4-0.4,0.4-1,0-1.4C23.6,41.3,23.3,41.2,23.1,41.3z M23.1,57.3H23
	c-0.2,0-0.4,0.2-0.6,0.3L16,65l-2.3-1.5c-0.5-0.3-1.1-0.2-1.4,0.3c-0.3,0.5-0.2,1.1,0.3,1.4l0,0l3,2c0.4,0.3,1,0.2,1.3-0.2l7-8
	c0.4-0.4,0.4-1,0-1.4C23.6,57.4,23.3,57.3,23.1,57.3z"/>
</svg>
