<?xml version="1.0" encoding="utf-8"?>
<!-- Generator: Adobe Illustrator 21.1.0, SVG Export Plug-In . SVG Version: 6.00 Build 0)  -->
<svg version="1.1" id="Layer_1" xmlns="http://www.w3.org/2000/svg" xmlns:xlink="http://www.w3.org/1999/xlink" x="0px" y="0px"
	 viewBox="0 0 88.4 50.5" style="enable-background:new 0 0 88.4 50.5;" xml:space="preserve">
<style type="text/css">
	.st0{fill:#423338;}
</style>
<title>33</title>
<path class="st0" d="M70.9,15.5c-3,0-5.7,0.7-8.2,2L53,2h8.3c1.4,0.2,2.5,1.4,2.5,2.8s-1.1,2.6-2.5,2.8v1.8c2.4-0.2,4.3-2.2,4.3-4.7
	S63.7,0.3,61.3,0H50.8v2l0,0l4.4,7H30l-4.1-6.6h4.5V0.6H19.6v1.8h4.1l5.1,8.1l-3.6,6.7c-2.3-1.1-4.9-1.8-7.7-1.8
	C7.9,15.4,0,23.2,0,32.9c0,9.6,7.8,17.5,17.5,17.5c9.2,0,16.7-7.1,17.4-16.1h6.8l-1,5h-1.5v1.8h5.3v-1.8h-1.9l1.1-5.8l12.4-23l5,8
	c-4.7,3.1-7.7,8.5-7.7,14.5c0,9.6,7.8,17.5,17.5,17.5S88.4,42.7,88.4,33C88.3,23.3,80.5,15.5,70.9,15.5z M29.9,12.3l12.5,19.9
	l-0.1,0.3H35c-0.2-6-3.4-11.3-8.2-14.3L29.9,12.3z M33.2,32.4H19.1l6.8-12.7C30.2,22.4,33,27.1,33.2,32.4z M17.5,48.6
	c-8.6,0-15.7-7-15.7-15.7s7-15.7,15.7-15.7c2.4,0,4.7,0.6,6.8,1.6L16,34.3h17.1C32.4,42.3,25.7,48.6,17.5,48.6z M43.4,30.3
	L31.1,10.8h22.7L43.4,30.3z M70.9,48.6c-8.6,0-15.7-7-15.7-15.7c0-5.4,2.7-10.1,6.9-13l8.4,13.4l1.5-1L63.7,19
	c2.2-1.1,4.6-1.8,7.2-1.8c8.6,0,15.7,7,15.7,15.7C86.5,41.6,79.5,48.6,70.9,48.6z"/>
</svg>
