<?xml version="1.0" encoding="utf-8"?>
<!-- Generator: Adobe Illustrator 21.1.0, SVG Export Plug-In . SVG Version: 6.00 Build 0)  -->
<svg version="1.1" id="Layer_1" xmlns="http://www.w3.org/2000/svg" xmlns:xlink="http://www.w3.org/1999/xlink" x="0px" y="0px"
	 viewBox="0 0 88.4 86.6" style="enable-background:new 0 0 88.4 86.6;" xml:space="preserve">
<style type="text/css">
	.st0{fill:#423338;}
</style>
<title>33</title>
<g>
	<path class="st0" d="M55.8,24.6c-0.1-6.4-5.3-11.6-11.7-11.5s-11.6,5.3-11.5,11.7s5.2,11.5,11.6,11.5S55.8,31.1,55.8,24.6
		C55.8,24.7,55.8,24.7,55.8,24.6z M34.5,24.6c0.1-5.3,4.4-9.6,9.7-9.5s9.6,4.4,9.5,9.7c-0.1,5.2-4.3,9.4-9.5,9.5
		C38.9,34.3,34.6,30,34.5,24.6L34.5,24.6C34.6,24.6,34.5,24.6,34.5,24.6z"/>
	<path class="st0" d="M0,86.6h88.4L76.5,60.7H54.9l11.7-14.3c1.7-2.1,3.1-4.4,4.1-6.9c3.3-9.2,2-19.5-3.6-27.5
		C58.5-0.6,41.2-3.8,28.6,4.9c-2.8,1.9-5.3,4.4-7.2,7.2c-5.6,8-6.9,18.3-3.6,27.5c1,2.5,2.4,4.8,4.1,6.9l11.6,14.3H11.9L0,86.6z
		 M19.6,38.8c-3.1-8.6-1.9-18.2,3.4-25.7C31,1.4,47-1.6,58.7,6.5c2.6,1.8,4.9,4.1,6.7,6.7c5.3,7.5,6.5,17.1,3.4,25.7
		c-0.9,2.3-2.1,4.4-3.7,6.3L44.2,70.6L23.3,45.1C21.7,43.3,20.5,41.1,19.6,38.8z M35.1,62.7l9.1,11l9.1-11.1h21.9l10.1,22H3.1
		l10.1-21.9C13.2,62.7,35.1,62.7,35.1,62.7z"/>
</g>
</svg>
